<svg xmlns="http://www.w3.org/2000/svg" xmlns:xlink="http://www.w3.org/1999/xlink" version="1.1" enable-background="new 0 0 1000 1000" xml:space="preserve" width="1000" height="1000" style=""><rect id="backgroundrect" width="100%" height="100%" x="0" y="0" fill="none" stroke="none"/>
<metadata> Svg Vector Icons : http://www.onlinewebfonts.com/icon </metadata>

<g class="currentLayer" style=""><title>Layer 1</title><g id="svg_1" class="selected" fill="#ffffff" fill-opacity="1"><g transform="translate(0,512) scale(0.10000000149011612,-0.10000000149011612) " id="svg_2" fill="#ffffff" fill-opacity="1"><path d="M4530.1,5007.9C3375.4,4889,2341.7,4400,1530.4,3588.6C751.6,2809.9,287.5,1860.5,124.4,723.1c-32.6-226.3-32.6-982,0-1208.3c163-1137.4,629.1-2086.8,1405.9-2865.5c776.8-776.8,1730-1244.8,2865.5-1405.9c226.3-32.6,982-32.6,1208.3,0c939.8,134.3,1779.9,491,2474.2,1053c987.8,797.9,1611.1,1916.1,1797.2,3218.4c32.6,226.3,32.6,982,0,1208.3c-161.1,1135.5-629.1,2088.7-1405.9,2865.5c-759.5,759.5-1687.8,1223.7-2779.2,1392.5C5448.8,5017.5,4775.6,5034.8,4530.1,5007.9z M5634.9,4355.8C7526,4089.2,9020.1,2549.1,9257.9,617.7c47.9-400.9,15.3-1022.3-78.6-1442.3c-326.1-1476.9-1473-2710.1-2923-3151.2c-471.8-142-863.1-191.8-1396.3-176.5c-907.2,24.9-1685.9,297.3-2430.1,845.8c-232.1,170.7-682.8,619.5-857.4,855.4c-563.9,761.4-849.7,1615-851.6,2552.8c0,529.4,55.6,882.3,214.8,1369.5c590.7,1797.2,2318.8,3001.7,4208.1,2930.7C5270.4,4396.1,5491,4376.9,5634.9,4355.8z" id="svg_3" fill="#ffffff" fill-opacity="1"/><path d="M4631.7,3780.4c-247.4-24.9-531.3-86.3-799.8-174.5c-268.5-90.1-665.5-280-657.9-318.4c3.8-23,1334.9-2332.3,1369.5-2374.5c11.5-15.3,49.9-7.7,136.2,28.8c101.7,42.2,147.7,49.9,320.3,49.9c174.6,0,218.7-7.7,322.2-51.8L5445,890l40.3,69c414.3,698.2,1350.3,2338,1342.6,2351.5c-21.1,34.5-450.7,224.4-671.3,299.2C5663.6,3772.8,5151.5,3830.3,4631.7,3780.4z" id="svg_4" fill="#ffffff" fill-opacity="1"/><path d="M4865.7,673.3c-264.7-51.8-466.1-331.8-433.5-606.1c55.6-475.7,640.6-663.6,959-310.7C5489.1-134.2,5537-11.4,5537,128.6C5537,477.6,5211,742.3,4865.7,673.3z" id="svg_5" fill="#ffffff" fill-opacity="1"/><path d="M1317.4,55.7c0-36.5,9.6-159.2,21.1-274.3c109.3-1127.8,702-2111.7,1647.5-2738.9c88.2-59.5,166.9-99.7,174.6-92.1c7.7,7.7,324.1,550.5,703.9,1206.4l690.5,1193l-92.1,71c-180.3,138.1-312.6,366.3-337.6,588.8L4112,119H2715.7H1317.4V55.7z" id="svg_6" fill="#ffffff" fill-opacity="1"/><path d="M5874.6,9.7c-25-222.5-157.3-450.7-337.6-588.8l-92.1-71l690.5-1193c379.8-656,696.2-1198.7,703.9-1206.4c7.7-7.7,86.3,32.6,174.5,92.1c951.3,631,1544,1622.6,1649.5,2760c9.6,117,19.2,234,19.2,264.7V119H7284.3H5888L5874.6,9.7z" id="svg_7" fill="#ffffff" fill-opacity="1"/></g></g></g></svg>